<?xml version="1.0" ?><!DOCTYPE svg  PUBLIC '-//W3C//DTD SVG 1.1//EN'  'http://www.w3.org/Graphics/SVG/1.1/DTD/svg11.dtd'><svg enable-background="new 0 0 100 100" height="100px" id="Layer_1" version="1.1" viewBox="0 0 100 100" width="100px" xml:space="preserve" xmlns="http://www.w3.org/2000/svg" xmlns:xlink="http://www.w3.org/1999/xlink"><g><defs><rect height="100" id="SVGID_1_" width="100"/></defs><path d="M79.535,27.4c-0.32-1.201-0.971-2.48-1.452-3.6C72.324,9.96,59.741,5,49.581,5   C35.98,5,21,14.12,19,32.919v3.841c0,0.16,0.055,1.6,0.134,2.32c1.121,8.959,8.19,18.48,13.47,27.439   c5.68,9.599,11.574,19.041,17.415,28.479c3.6-6.159,7.188-12.399,10.707-18.399c0.959-1.761,2.071-3.521,3.031-5.201   c0.64-1.119,1.862-2.238,2.421-3.279C71.857,57.722,81,47.24,81,36.92v-4.24C81,31.561,79.613,27.641,79.535,27.4 M49.83,46.68   c-3.998,0-8.374-1.999-10.534-7.52C38.974,38.281,39,36.52,39,36.359v-2.48c0-7.038,5.976-10.239,11.175-10.239   c6.4,0,11.351,5.121,11.351,11.521S56.23,46.68,49.83,46.68"/></g></svg>